<svg xmlns="http://www.w3.org/2000/svg" style="display:none">
  <symbol id="brand-panda" viewBox="0 0 24 24" fill="none" stroke="currentColor" stroke-width="1.7" stroke-linecap="round" stroke-linejoin="round">
    <circle cx="7.2" cy="6.2" r="2.4"/>
    <circle cx="16.8" cy="6.2" r="2.4"/>
    <path d="M12 20c4.6 0 8.2-3.4 8.2-7.9S16.6 4.2 12 4.2 3.8 7.7 3.8 12.1 7.4 20 12 20z"/>
    <path d="M8.9 11.6c.8-1 1.8-1.5 3.1-1.5"/>
    <path d="M15.1 11.6c-.8-1-1.8-1.5-3.1-1.5"/>
    <ellipse cx="9.3" cy="11.6" rx="1.6" ry="2.1"/>
    <ellipse cx="14.7" cy="11.6" rx="1.6" ry="2.1"/>
    <circle cx="9.5" cy="11.5" r=".65" fill="currentColor" stroke="none"/>
    <circle cx="14.5" cy="11.5" r=".65" fill="currentColor" stroke="none"/>
    <path d="M10.8 14.7 12 15.6l1.2-.9"/>
    <path d="M10.1 17c1.3.9 2.5.9 3.8 0"/>
  </symbol>
  <symbol id="camera" viewBox="0 0 24 24" fill="none" stroke="currentColor" stroke-width="1.8" stroke-linecap="round" stroke-linejoin="round">
    <path d="M4 7.5A2.5 2.5 0 0 1 6.5 5h2.1l1.2-1.7h4.4L15.4 5h2.1A2.5 2.5 0 0 1 20 7.5v9A2.5 2.5 0 0 1 17.5 19h-11A2.5 2.5 0 0 1 4 16.5z"/>
    <circle cx="12" cy="12" r="3.5"/>
  </symbol>
  <symbol id="mic" viewBox="0 0 24 24" fill="none" stroke="currentColor" stroke-width="1.8" stroke-linecap="round" stroke-linejoin="round">
    <rect x="9" y="3" width="6" height="11" rx="3"/>
    <path d="M6.5 11.5a5.5 5.5 0 0 0 11 0"/>
    <path d="M12 17v4"/>
    <path d="M9 21h6"/>
  </symbol>
  <symbol id="send-up" viewBox="0 0 24 24" fill="none" stroke="currentColor" stroke-width="1.8" stroke-linecap="round" stroke-linejoin="round">
    <path d="M12 20V7"/>
    <path d="m7 11 5-5 5 5"/>
    <path d="M5 4h14"/>
  </symbol>
  <symbol id="list" viewBox="0 0 24 24" fill="none" stroke="currentColor" stroke-width="1.8" stroke-linecap="round" stroke-linejoin="round">
    <path d="M8 6h12"/>
    <path d="M8 12h12"/>
    <path d="M8 18h12"/>
    <circle cx="4" cy="6" r="1"/>
    <circle cx="4" cy="12" r="1"/>
    <circle cx="4" cy="18" r="1"/>
  </symbol>
  <symbol id="eye" viewBox="0 0 24 24" fill="none" stroke="currentColor" stroke-width="1.8" stroke-linecap="round" stroke-linejoin="round">
    <path d="M2.5 12s3.5-6 9.5-6 9.5 6 9.5 6-3.5 6-9.5 6-9.5-6-9.5-6z"/>
    <circle cx="12" cy="12" r="3"/>
  </symbol>
  <symbol id="flame" viewBox="0 0 24 24" fill="none" stroke="currentColor" stroke-width="1.8" stroke-linecap="round" stroke-linejoin="round">
    <path d="M13.5 2.8c.9 3.2-.8 4.8-2.1 6.2-1.5 1.5-2.7 3-2.7 5.4a4.8 4.8 0 0 0 9.6 0c0-3.6-2.3-5.6-4.8-11.6z"/>
    <path d="M12.3 11.2c.4 1.5-.2 2.4-.8 3.1-.6.7-1.1 1.4-1.1 2.5a2.4 2.4 0 0 0 4.8 0c0-1.7-1-2.8-2.9-5.6z"/>
  </symbol>
  <symbol id="sparkles" viewBox="0 0 24 24" fill="none" stroke="currentColor" stroke-width="1.8" stroke-linecap="round" stroke-linejoin="round">
    <path d="m12 3 1.2 3.8L17 8l-3.8 1.2L12 13l-1.2-3.8L7 8l3.8-1.2z"/>
    <path d="m18.5 14  .7 2.1 2.1.7-2.1.7-.7 2.1-.7-2.1-2.1-.7 2.1-.7z"/>
    <path d="m5.5 14 .9 2.6 2.6.9-2.6.9-.9 2.6-.9-2.6-2.6-.9 2.6-.9z"/>
  </symbol>
  <symbol id="calendar" viewBox="0 0 24 24" fill="none" stroke="currentColor" stroke-width="1.8" stroke-linecap="round" stroke-linejoin="round">
    <rect x="3" y="5" width="18" height="16" rx="2"/>
    <path d="M16 3v4"/>
    <path d="M8 3v4"/>
    <path d="M3 10h18"/>
  </symbol>
  <symbol id="trash" viewBox="0 0 24 24" fill="none" stroke="currentColor" stroke-width="1.8" stroke-linecap="round" stroke-linejoin="round">
    <path d="M4 7h16"/>
    <path d="M9 7V4h6v3"/>
    <path d="M7 7l1 12h8l1-12"/>
    <path d="M10 11v5"/>
    <path d="M14 11v5"/>
  </symbol>
  <symbol id="inbox" viewBox="0 0 24 24" fill="none" stroke="currentColor" stroke-width="1.8" stroke-linecap="round" stroke-linejoin="round">
    <path d="M4 5h16l1.5 8.5A2 2 0 0 1 19.5 16H15l-2 3h-2l-2-3H4.5a2 2 0 0 1-2-2.5z"/>
  </symbol>
  <symbol id="user" viewBox="0 0 24 24" fill="none" stroke="currentColor" stroke-width="1.8" stroke-linecap="round" stroke-linejoin="round">
    <circle cx="12" cy="8" r="4"/>
    <path d="M5 20a7 7 0 0 1 14 0"/>
  </symbol>
  <symbol id="image" viewBox="0 0 24 24" fill="none" stroke="currentColor" stroke-width="1.8" stroke-linecap="round" stroke-linejoin="round">
    <rect x="3" y="5" width="18" height="14" rx="2"/>
    <circle cx="8.5" cy="10" r="1.5"/>
    <path d="m21 15-4.8-4.8a1.5 1.5 0 0 0-2.1 0L7 17"/>
  </symbol>
  <symbol id="video" viewBox="0 0 24 24" fill="none" stroke="currentColor" stroke-width="1.8" stroke-linecap="round" stroke-linejoin="round">
    <rect x="3" y="6" width="13" height="12" rx="2"/>
    <path d="m16 10 5-3v10l-5-3z"/>
  </symbol>
  <symbol id="play" viewBox="0 0 24 24" fill="none" stroke="currentColor" stroke-width="1.8" stroke-linecap="round" stroke-linejoin="round">
    <path d="m8 6 10 6-10 6z"/>
  </symbol>
  <symbol id="x" viewBox="0 0 24 24" fill="none" stroke="currentColor" stroke-width="1.8" stroke-linecap="round" stroke-linejoin="round">
    <path d="M18 6 6 18"/>
    <path d="m6 6 12 12"/>
  </symbol>
  <symbol id="check" viewBox="0 0 24 24" fill="none" stroke="currentColor" stroke-width="1.8" stroke-linecap="round" stroke-linejoin="round">
    <path d="m5 13 4 4L19 7"/>
  </symbol>
  <symbol id="alert" viewBox="0 0 24 24" fill="none" stroke="currentColor" stroke-width="1.8" stroke-linecap="round" stroke-linejoin="round">
    <path d="M12 4 3.8 19h16.4z"/>
    <path d="M12 9v4"/>
    <circle cx="12" cy="16.5" r=".8" fill="currentColor" stroke="none"/>
  </symbol>
  <symbol id="clock" viewBox="0 0 24 24" fill="none" stroke="currentColor" stroke-width="1.8" stroke-linecap="round" stroke-linejoin="round">
    <circle cx="12" cy="12" r="9"/>
    <path d="M12 7v5l3 2"/>
  </symbol>
  <symbol id="refresh" viewBox="0 0 24 24" fill="none" stroke="currentColor" stroke-width="1.8" stroke-linecap="round" stroke-linejoin="round">
    <path d="M21 4v6h-6"/>
    <path d="M3 20v-6h6"/>
    <path d="M20 10a8 8 0 0 0-13.6-3.2L3 10"/>
    <path d="M4 14a8 8 0 0 0 13.6 3.2L21 14"/>
  </symbol>
  <symbol id="sunrise" viewBox="0 0 24 24" fill="none" stroke="currentColor" stroke-width="1.8" stroke-linecap="round" stroke-linejoin="round">
    <path d="M4 19h16"/>
    <path d="M6 15a6 6 0 0 1 12 0"/>
    <path d="M12 5v3"/>
    <path d="M8 8l1.5 1.5"/>
    <path d="M16 8l-1.5 1.5"/>
  </symbol>
  <symbol id="leaf" viewBox="0 0 24 24" fill="none" stroke="currentColor" stroke-width="1.8" stroke-linecap="round" stroke-linejoin="round">
    <path d="M6 19c7-1 12-6 12-14-8 0-13 5-14 12-.1.7.2 1.3.8 1.8.5.4 1.2.5 1.9.2z"/>
    <path d="M8 16c2-2.5 4.7-4.8 8-6.5"/>
  </symbol>
  <symbol id="utensils" viewBox="0 0 24 24" fill="none" stroke="currentColor" stroke-width="1.8" stroke-linecap="round" stroke-linejoin="round">
    <path d="M5 3v8"/>
    <path d="M8 3v8"/>
    <path d="M5 7h3"/>
    <path d="M6.5 11v10"/>
    <path d="M15 3c0 4-2 5-2 7v11"/>
    <path d="M19 3v18"/>
  </symbol>
  <symbol id="ice-cream" viewBox="0 0 24 24" fill="none" stroke="currentColor" stroke-width="1.8" stroke-linecap="round" stroke-linejoin="round">
    <path d="M9 10a3 3 0 0 1 6 0 2.5 2.5 0 1 1 0 5h-6a2.5 2.5 0 1 1 0-5z"/>
    <path d="m10 15 2 6 2-6"/>
  </symbol>
</svg>
